<svg width="41" height="41" viewBox="0 0 41 41" fill="none" xmlns="http://www.w3.org/2000/svg">
<path d="M7.43384 10.0398C7.23698 10.0398 7.04512 9.95138 6.91833 9.78288C6.70646 9.49927 6.76652 9.09888 7.05013 8.887C10.36 6.4196 14.4807 5.07996 18.5847 5.12667C22.1315 5.12667 26.4974 6.32617 29.1967 8.04285C29.4954 8.23137 29.5838 8.62842 29.3936 8.92704C29.2034 9.224 28.808 9.31409 28.5094 9.1239C26.0353 7.54903 21.8579 6.40625 18.578 6.40625C14.7226 6.36955 10.9022 7.6141 7.81421 9.91301C7.70076 9.99809 7.56563 10.0398 7.43384 10.0398Z" fill="black"/>
<path d="M19.2188 28.8281C18.8651 28.8281 18.5781 29.1167 18.5781 29.4688V30.75C18.5781 31.1037 18.8651 31.3906 19.2188 31.3906C19.5724 31.3906 19.8594 31.1037 19.8594 30.75V29.4688C19.8594 29.1167 19.5724 28.8281 19.2188 28.8281Z" fill="black"/>
<path d="M16.1558 28.5078C15.9907 28.4728 15.8155 28.5028 15.6737 28.5963C15.5302 28.6897 15.4301 28.8365 15.3951 29.0016L15.1248 30.2829C15.0898 30.4514 15.1198 30.6232 15.2116 30.7667C15.305 30.9118 15.4518 31.0119 15.6186 31.047H15.7538C16.0607 31.052 16.3277 30.8418 16.3944 30.5415L16.6646 29.2602C16.728 28.9116 16.5045 28.5762 16.1558 28.5078Z" fill="black"/>
<path d="M13.2278 27.5469C13.0726 27.4785 12.8975 27.4751 12.7373 27.5352C12.5788 27.5969 12.452 27.717 12.382 27.8755L11.8631 29.0466C11.7196 29.3686 11.8648 29.749 12.1918 29.8908C12.5138 30.0343 12.8925 29.8891 13.0359 29.5638L13.5548 28.3927C13.6248 28.2375 13.6265 28.059 13.5681 27.9022C13.5047 27.7454 13.3863 27.6153 13.2278 27.5469Z" fill="black"/>
<path d="M9.65932 26.1572L8.90358 27.1949C8.69504 27.4835 8.75844 27.8839 9.04538 28.0941C9.33066 28.301 9.73439 28.2392 9.94126 27.9506L10.697 26.9063C10.9072 26.6193 10.8438 26.2189 10.5569 26.0121C10.2699 25.8018 9.86952 25.8636 9.65932 26.1522V26.1572Z" fill="black"/>
<path d="M23.0625 29.0015C22.9874 28.6479 22.642 28.421 22.2867 28.496C21.933 28.5711 21.7061 28.9165 21.7812 29.2718L22.0515 30.5531C22.1149 30.8533 22.3851 31.0669 22.6921 31.0585H22.8256C22.9924 31.0235 23.1375 30.9234 23.2309 30.7799C23.3227 30.6348 23.3544 30.463 23.3177 30.2945L23.0625 29.0015Z" fill="black"/>
<path d="M26.0604 27.8806C25.9169 27.5586 25.5399 27.4101 25.2146 27.5553C24.8926 27.6988 24.7441 28.0758 24.8893 28.3978L25.4081 29.5723C25.5499 29.8942 25.9303 30.0427 26.2539 29.8992C26.5759 29.7541 26.7244 29.3771 26.5793 29.0551L26.0604 27.8806Z" fill="black"/>
<path d="M28.7779 26.1572C28.5661 25.8886 28.1774 25.8335 27.8971 26.0337C27.6185 26.2373 27.5501 26.6193 27.7403 26.9079L28.496 27.9456C28.7029 28.2309 29.1066 28.2943 29.3919 28.0857C29.6788 27.8789 29.7422 27.4751 29.5337 27.1899L28.7779 26.1572Z" fill="black"/>
<path d="M39.315 16.5212L37.0978 16.241C36.4439 15.1182 35.5947 14.1222 34.5937 13.2931V7.09204C34.5971 6.76672 34.3568 6.45142 34.0298 6.45142C28.1875 6.45308 27.5469 11.136 27.5469 12.172C27.5469 12.5257 27.8338 12.8126 28.1875 12.8126C28.5412 12.8126 28.8281 12.5257 28.8281 12.172C28.8281 11.1894 29.1534 10.2301 29.7507 9.44934C30.5998 8.33993 31.9161 7.68762 33.3125 7.68762V13.2931C33.3158 13.6718 33.4826 14.0321 33.7729 14.274C34.6588 15.0081 35.4095 15.8906 35.9901 16.8816C36.1886 17.2319 36.5373 17.4705 36.9377 17.5222L39.1548 17.7975C39.4785 17.8359 39.7221 18.1111 39.7187 18.4381V23.8517C39.7221 24.177 39.4785 24.4523 39.1548 24.4923L36.8693 24.7793C36.4739 24.8377 36.1286 25.0729 35.9334 25.4199C34.8039 27.2484 33.149 28.6931 31.1854 29.564C30.6899 29.7925 30.393 30.3047 30.443 30.8452L30.75 34.07C30.7833 34.3837 30.5815 34.6739 30.2778 34.754L27.2766 35.5548C27.008 35.6282 26.7244 35.5198 26.5726 35.2845L25.1512 33.1091C24.9143 32.7504 24.5156 32.5352 24.0885 32.5335C23.965 32.5335 23.8449 32.5502 23.7281 32.5836C20.3298 33.5495 16.728 33.5495 13.3313 32.5836C12.7925 32.4251 12.2119 32.6386 11.9016 33.1091L10.5052 35.2929C10.3551 35.5248 10.0698 35.6349 9.80287 35.5632L6.79661 34.754C6.49131 34.6739 6.29111 34.3837 6.32448 34.07L6.77158 29.6173C6.80995 29.237 6.67649 28.8566 6.40623 28.5863C3.99888 26.3141 2.61252 23.1694 2.56248 19.8612C2.56248 18.7901 2.71262 17.7241 3.01125 16.6947C3.14137 16.2376 3.00624 15.7421 2.65757 15.4135C1.12441 13.9371 0.839128 11.5831 1.98024 9.783C2.12872 10.799 2.55247 11.7549 3.2031 12.5507C3.43833 12.8443 3.79368 13.0145 4.17238 13.0111C4.57277 13.0095 4.9498 12.8243 5.19504 12.5057C6.98346 10.2768 9.34409 8.5885 12.0167 7.60254C11.8949 7.39067 11.7965 7.16878 11.7264 6.93522C11.6714 6.75505 11.6196 6.57153 11.5646 6.39136C8.66176 7.46908 6.09926 9.31254 4.17738 11.7499C3.54343 10.9625 3.20143 9.98153 3.2031 8.97054C3.20644 8.7203 3.23146 8.47172 3.27317 8.22648C3.33323 7.96122 3.21812 7.68929 2.98789 7.54415C2.75767 7.39901 2.46071 7.41736 2.2505 7.58586C0.919205 8.61186 0.100073 10.1667 0.00998511 11.845C-0.0801028 13.5216 0.568864 15.1566 1.78171 16.316C1.44972 17.4688 1.27789 18.6617 1.28123 19.8595C1.33294 23.5014 2.85276 26.9648 5.49534 29.4689L5.05491 33.9532C4.95981 34.8925 5.5604 35.76 6.47129 36.0036L9.47422 36.811C10.2783 37.0262 11.1275 36.7009 11.5813 36.0036L13.0093 33.8265C16.6429 34.8625 20.4916 34.8625 24.1252 33.8265L25.5482 35.9986C26.0037 36.6943 26.8545 37.0196 27.657 36.8044L30.6549 36.0036C31.5491 35.7467 32.1297 34.8808 32.0312 33.9549L31.7026 30.7184C33.9031 29.7408 35.7515 28.1159 37.0077 26.0622L39.295 25.7736C40.2643 25.6535 40.9866 24.8277 40.98 23.8517V18.4314C40.9833 17.4688 40.2709 16.653 39.315 16.5212Z" fill="black"/>
<path d="M33.3125 17.9741C33.3125 18.6815 32.7386 19.2554 32.0312 19.2554C31.3239 19.2554 30.75 18.6815 30.75 17.9741C30.75 17.2668 31.3239 16.6929 32.0312 16.6929C32.7386 16.6929 33.3125 17.2668 33.3125 17.9741Z" fill="black"/>
</svg>
